<svg width="71" height="64" viewBox="0 0 71 64" fill="none" xmlns="http://www.w3.org/2000/svg">
<path d="M31.5446 0V0.267121H31.9432C33.4718 0.267121 35.1369 0.932198 35.1369 3.58705C35.1369 5.71312 33.8048 8.37342 30.016 12.293L13.5776 29.2688V0.267121H19.1681V0H0V0.267121H5.59047V46.2446H0V46.5118H19.1681V46.2446H13.5776V29.7322L21.0625 21.9911L33.8977 43.3009V27.6497L26.9205 15.9455L29.683 13.0889C39.2643 3.1891 44.5872 0.267121 48.6436 0.267121H48.7146V0H31.5446ZM30.8131 46.2446V46.5118H33.8977V46.2446H30.8131ZM44.9858 46.2446L42.4308 41.9598V46.5118H49.6427V46.2446H44.9858ZM34.4436 28.5656L34.1706 28.1077V43.7533L34.4436 44.2058L35.672 46.2446H34.1706V46.5118H42.1578V41.5019L41.8848 41.044L34.4436 28.5656Z" fill="#837dff"/>
<path d="M70.4376 55.692C70.0391 60.1731 68.778 62.5008 67.0091 62.5008C64.9509 62.5008 64.6834 59.5135 64.6179 56.4879C64.3504 44.8273 62.2539 40.6405 47.1477 39.7411C47.1804 39.7411 47.2132 39.6756 47.1477 39.6756C54.5015 39.245 64.2848 37.5169 64.2848 28.2167C64.2848 21.0698 58.2631 16.3543 48.4798 16.3543H28.5856V16.6215H34.1706V62.599H28.5856V62.8661H47.7482V62.599H42.1577V39.7083C53.8355 40.2099 54.769 40.1772 56.0302 51.4726C56.9965 60.0095 59.2949 63.7274 64.5524 63.7274C68.707 63.7274 70.2738 61.0071 70.7051 55.7247L70.4376 55.692ZM42.1577 39.4467V16.6215H45.0185C53.1694 16.6215 55.5661 21.4732 55.5661 28.5165C55.5661 33.0303 54.567 37.2824 50.74 38.7489C49.1786 39.3431 46.9511 39.5121 45.3188 39.5121C44.1559 39.5121 43.1896 39.4794 42.1577 39.4467Z" fill="#837dff"/>
<path d="M70.4376 55.692C70.0391 60.1731 68.778 62.5008 67.0091 62.5008C64.9509 62.5008 64.6834 59.5135 64.6179 56.4879C64.3504 44.8273 62.2539 40.6405 47.1477 39.7411C47.1804 39.7411 47.2132 39.6756 47.1477 39.6756C54.5015 39.245 64.2848 37.5169 64.2848 28.2167C64.2848 21.0698 58.2631 16.3543 48.4798 16.3543H28.5856V16.6215H34.1706V62.599H28.5856V62.8661H47.7482V62.599H42.1577V39.7083C53.8355 40.2099 54.769 40.1772 56.0302 51.4726C56.9965 60.0095 59.2949 63.7274 64.5524 63.7274C68.707 63.7274 70.2738 61.0071 70.7051 55.7247L70.4376 55.692ZM41.8848 62.5935H34.4435V16.6269H41.8848V62.5935ZM42.4307 16.894H45.0185C52.1267 16.894 55.2931 20.4756 55.2931 28.5165C55.2931 34.0334 53.77 37.2988 50.6417 38.4927C48.8838 39.1632 46.3342 39.2395 45.3188 39.2395C44.3033 39.2395 43.3643 39.2123 42.4307 39.1796V16.894ZM48.4798 16.6269C57.9137 16.6269 64.0119 21.1734 64.0119 28.2167C64.0119 35.9741 57.0729 38.3182 50.5434 39.1087C50.6417 39.076 50.74 39.0378 50.8382 38.9997C54.2013 37.7131 55.8391 34.2842 55.8391 28.5165C55.8391 21.4951 53.3823 17.6463 48.1631 16.6269H48.4798ZM46.9129 39.6811C46.9238 39.5666 47.0166 39.4794 47.1367 39.4685V39.6974C47.0658 39.692 46.9893 39.6865 46.9129 39.6811ZM64.5524 63.4548C59.5952 63.4548 57.2804 60.0859 56.3031 51.4399C55.4951 44.1949 54.7144 41.5128 51.3624 40.3952C62.1557 41.7799 64.1047 45.9448 64.3449 56.4934C64.4104 59.5298 64.6779 62.7734 67.0091 62.7734C67.2111 62.7734 67.4022 62.7462 67.5878 62.6971C66.7743 63.215 65.7698 63.4548 64.5524 63.4548Z" fill='#837dff'/>
</svg>
